# AST/ASF file generated using VICON BodyLanguage
# -----------------------------------------------
:version 1.10
:name VICON
:units
  mass 1.0
  length 0.45
  angle deg
:documentation
   .ast/.asf automatically generated from VICON data using
   VICON BodyBuilder and BodyLanguage model FoxedUp or BRILLIANT.MOD
:root
   order TX TY TZ RX RY RZ
   axis XYZ
   position 0 0 0  
   orientation 0 0 0 
:bonedata
  begin
     id 1 
     name lhipjoint
     direction 0.611804 -0.747784 0.257906 
     length 2.29243 
     axis 0 0 0  XYZ
  end
  begin
     id 2 
     name lfemur
     direction 0.34202 -0.939693 0  
     length 7.31159  
     axis 0 0 20  XYZ
    dof rx ry rz
    limits (-160.0 20.0)
           (-70.0 70.0)
           (-60.0 70.0)
  end
  begin
     id 3 
     name ltibia
     direction 0.34202 -0.939693 0   
     length 7.33391   
     axis 0 0 20   XYZ
    dof rx
    limits (-10.0 170.0)
  end
  begin
     id 4 
     name lfoot
     direction 0.122263 -0.335914 0.933924   
     length 1.76083   
     axis -90 7.62852e-016 20   XYZ
    dof rx rz
    limits (-45.0 90.0)
           (-70.0 20.0)
  end
  begin
     id 5 
     name ltoes
     direction 1.53533e-011 -4.2177e-011 1   
     length 0.879206   
     axis -90 7.62852e-016 20   XYZ
    dof rx
    limits (-90.0 20.0)
  end
  begin
     id 6 
     name rhipjoint
     direction -0.646469 -0.721248 0.248754   
     length 2.37677  
     axis 0 0 0  XYZ 
  end
  begin
     id 7 
     name rfemur
     direction -0.34202 -0.939693 0   
     length 7.18623   
     axis 0 0 -20   XYZ
    dof rx ry rz
    limits (-160.0 20.0)
           (-70.0 70.0)
           (-70.0 60.0)
  end
  begin
     id 8 
     name rtibia
     direction -0.34202 -0.939693 0   
     length 7.36567   
     axis 0 0 -20   XYZ
    dof rx
    limits (-10.0 170.0)
 end
 begin
     id 9 
     name rfoot
     direction -0.126681 -0.348054 0.928876   
     length 1.71902  
     axis -90 -7.62852e-016 -20   XYZ
    dof rx rz
    limits (-45.0 90.0)
           (-20.0 70.0)
  end
  begin
     id 10 
     name rtoes
     direction -1.53551e-011 -4.21898e-011 1   
     length 0.857792   
     axis -90 -7.62852e-016 -20   XYZ
    dof rx
    limits (-90.0 20.0)
  end
  begin
     id 11 
     name lowerback
     direction 0.0106509 0.999778 0.0181844   
     length 2.07668   
     axis 0 0 0   XYZ
    dof rx ry rz
    limits (-20.0 45.0)
           (-30.0 30.0)
           (-30.0 30.0)
  end
  begin
     id 12 
     name upperback
     direction -0.00456018 0.999989 -0.000590935   
     length 2.08011   
     axis 0 0 0   XYZ
    dof rx ry rz
    limits (-20.0 45.0)
           (-30.0 30.0)
           (-30.0 30.0)
  end
  begin
     id 13 
     name thorax
     direction -0.00910382 0.999916 -0.00923765   
     length 2.07397   
     axis 0 0 0   XYZ
    dof rx ry rz
    limits (-20.0 45.0)
           (-30.0 30.0)
           (-30.0 30.0)
  end
  begin
     id 14 
     name lowerneck
     direction 0.00171967 0.99778 0.0665733   
     length 1.67556   
     axis 0 0 0   XYZ
    dof rx ry rz
    limits (-20.0 45.0)
           (-30.0 30.0)
           (-30.0 30.0)
  end
  begin
     id 15 
     name upperneck
     direction -0.0143166 0.991302 -0.130828   
     length 1.68462   
     axis 0 0 0   XYZ
    dof rx ry rz
    limits (-20.0 45.0)
           (-30.0 30.0)
           (-30.0 30.0)
  end
  begin
     id 16
     name head
     direction -0.00606378 0.998665 -0.0512995  
     length 1.69269  
     axis 0 0 0   XYZ
    dof rx ry rz
    limits (-20.0 45.0)
           (-30.0 30.0)
           (-30.0 30.0)
  end
  begin
     id 17 
     name lclavicle
     direction 0.9638 0.179341 0.197297  
     length 4.12888  
     axis 0 0 0   XYZ
    dof ry rz
    limits (-20.0 10.0)
           (0.0 20.0)
  end
  begin
     id 18 
     name lhumerus
     direction 1 -4.48972e-011 -2.47351e-027   
     length 5.01834   
     axis -180 -30 -90   XYZ
    dof rx ry rz
    limits (-60.0 90.0)
           (-90.0 90.0)
           (-90.0 90.0)
  end
  begin
     id 19
     name lradius
     direction 1 -4.48965e-011 1.51591e-026   
     length 3.4869   
     axis -180 -30 -90   XYZ
    dof rx
    limits (-10.0 170.0)
  end
  begin
     id 20
     name lwrist
     direction 1 -4.48957e-011 2.70032e-026   
     length 1.74345   
     axis -1.81515e-014 90 90   XYZ
    dof ry
    limits (-180.0 0.0)
 end
  begin
     id 21 
     name lhand
     direction 1 -4.48951e-011 5.40064e-026   
     length 0.76799   
     axis -3.44607e-014 90 90   XYZ
    dof rx rz
    limits (-90.0 90.0)
           (-45.0 45.0)
  end
  begin
     id 22 
     name lfingers
     direction 1 -4.48971e-011 1.08013e-025   
     length 0.619174   
     axis -6.89214e-014 90 90   XYZ
    dof rx
    limits (0.0 90.0)
  end
  begin
     id 23
     name lthumb
     direction 0.707107 -6.34931e-011 0.707107   
     length 0.889013   
     axis -90 45 2.85299e-015   XYZ
    dof rx rz
    limits (-45.0 45.0)
           (-45.0 45.0)
  end
  begin
     id 24 
     name rclavicle
     direction -0.961409 0.252588 0.109054   
     length 4.04305  
     axis 0 0 0   XYZ 
    dof ry rz
    limits (-10.0 20.0)
           (-20.0 0.0)
  end
  begin
     id 25 
     name rhumerus
     direction -1 -4.4897e-011 1.33872e-017  
     length 4.70164   
     axis -180 30 90   XYZ
    dof rx ry rz
    limits (-90.0 60.0)
           (-90.0 90.0)
           (-90.0 90.0)
  end
  begin
     id 26 
     name rradius
     direction -1 -4.48954e-011 1.83844e-026   
     length 3.49911   
     axis -180 30 90   XYZ
    dof rx
    limits (-10.0 170.0)
  end
  begin
     id 27 
     name rwrist
     direction -1 -4.49008e-011 2.70032e-026   
     length 1.74955   
     axis -1.81515e-014 -90 -90   XYZ
    dof ry
    limits (-180.0 0.0)
  end
  begin
     id 28
     name rhand
     direction -1 -4.48916e-011 5.40064e-026   
     length 0.739335   
     axis -3.44607e-014 -90 -90   XYZ
    dof rx rz
    limits (-90.0 90.0)
           (-45.0 45.0)
  end
  begin
     id 29
     name rfingers
     direction -1 -4.48987e-011 1.08013e-025   
     length 0.596071   
     axis -6.89214e-014 -90 -90   XYZ
    dof rx
    limits (0.0 90.0)
  end
  begin
     id 30
     name rthumb
     direction -0.707107 -6.34935e-011 0.707107   
     length 0.855843   
     axis -90 -45 -2.85299e-015   XYZ
    dof rx rz
    limits (-45.0 45.0)
           (-45.0 45.0)
  end
:hierarchy
  begin
    root lhipjoint rhipjoint lowerback
    lhipjoint lfemur
    lfemur ltibia
    ltibia lfoot
    lfoot ltoes
    rhipjoint rfemur
    rfemur rtibia
    rtibia rfoot
    rfoot rtoes
    lowerback upperback
    upperback thorax
    thorax lowerneck lclavicle rclavicle
    lowerneck upperneck
    upperneck head
    lclavicle lhumerus
    lhumerus lradius
    lradius lwrist
    lwrist lhand lthumb
    lhand lfingers
    rclavicle rhumerus
    rhumerus rradius
    rradius rwrist
    rwrist rhand rthumb
    rhand rfingers
  end

#!OML:ASF I:\salsa\salsa 7_09\Patient 1\Session 1\dancermale.ASF
:FULLY-SPECIFIED
:DEGREES
281
root 6.13305 17.2949 -0.122751 231.97 91.8418 228.965
lowerback -5.01994 1.59011 0.337954
upperback 0.0814509 2.13697 -1.03499
thorax 2.94926 1.07944 -1.09363
lowerneck -8.1832 -1.69269 0.924363
upperneck 19.8495 -1.79793 -1.7596
head 7.40617 -0.813836 -0.867638
rclavicle -2.14501e-014 1.07344e-014
rhumerus -32.5299 -3.53741 -99.1891
rradius 90.9405
rwrist -37.7079
rhand -43.8053 -4.29698
rfingers 7.12502
rthumb -16.6338 -33.6042
lclavicle -2.14501e-014 1.07344e-014
lhumerus -15.7371 -12.1549 92.1172
lradius 73.0232
lwrist 77.5951
lhand -11.034 63.1233
lfingers 7.12502
lthumb 14.9877 267.439
rfemur -1.57822 6.98776 16.8516
rtibia 16.9969
rfoot -19.5149 -12.2199
rtoes -4.12966
lfemur -16.3712 -2.29295 -19.8898
ltibia 26.8894
lfoot -15.9841 8.26573
ltoes -12.1028
282
root 6.24133 17.2945 -0.202276 229.44 92.4427 226.446
lowerback -4.98973 1.65086 0.179005
upperback 0.101174 2.23433 -1.21906
thorax 2.95626 1.12766 -1.1871
lowerneck -8.12708 -1.70406 0.951636
upperneck 19.7191 -1.79843 -1.88658
head 7.35172 -0.825631 -0.912053
rclavicle -1.51822e-014 3.77691e-015
rhumerus -33.2506 -3.50477 -99.1564
rradius 91.6006
rwrist -37.1429
rhand -44.0288 -5.60571
rfingers 7.12502
rthumb -16.8489 -34.8947
lclavicle -1.51822e-014 3.77691e-015
lhumerus -15.9285 -12.4067 92.0506
lradius 73.4102
lwrist 76.7488
lhand -9.51486 62.9367
lfingers 7.12502
lthumb 16.4508 267.741
rfemur -2.43022 6.84722 16.0941
rtibia 19.212
rfoot -19.8976 -11.9459
rtoes -4.82043
lfemur -15.5766 -1.35322 -20.6019
ltibia 26.2531
lfoot -16.3023 7.75646
ltoes -11.8917
283
root 6.34779 17.2905 -0.289255 223.239 93.3424 219.737
lowerback -5.51442 1.8615 0.148392
upperback -0.00976169 2.52888 -1.43996
thorax 3.15206 1.27669 -1.35911
lowerneck -8.06584 -1.72271 0.866369
upperneck 19.6234 -1.80715 -1.92255
head 7.30997 -0.840599 -0.908878
rclavicle -1.13664e-014 2.98177e-016
rhumerus -33.9395 -3.64136 -99.0318
rradius 92.1505
rwrist -36.3963
rhand -44.1111 -6.49907
rfingers 7.12502
rthumb -16.9281 -35.7813
lclavicle -1.13664e-014 2.98177e-016
lhumerus -16.125 -12.6712 92.0162
lradius 74.05
lwrist 76.4562
lhand -9.08749 62.6299
lfingers 7.12502
lthumb 16.8622 268.082
rfemur -4.1779 6.82725 15.2102
rtibia 21.7658
rfoot -20.1607 -11.4874
rtoes -4.61271
lfemur -15.271 -0.736999 -21.3354
ltibia 25.4698
lfoot -16.3925 7.86769
ltoes -11.3155
284
root 6.45706 17.2889 -0.379143 218.559 94.425 214.251
lowerback -6.41841 2.15014 0.15349
upperback -0.188754 2.93005 -1.67048
thorax 3.49741 1.47977 -1.53465
lowerneck -8.04072 -1.758 0.697081
upperneck 19.5743 -1.83851 -1.88703
head 7.29138 -0.865742 -0.871125
rclavicle 2.25714e-014 -8.94531e-015
rhumerus -34.4825 -3.7828 -98.7608
rradius 92.445
rwrist -35.6052
rhand -44.2067 -6.89577
rfingers 7.12502
rthumb -17.0201 -36.1701
lclavicle 2.25714e-014 -8.94531e-015
lhumerus -16.331 -12.8159 92.0538
lradius 74.8052
lwrist 76.336
lhand -9.11892 62.4912
lfingers 7.12502
lthumb 16.832 268.218
rfemur -6.41307 6.91413 14.2977
rtibia 24.5318
rfoot -20.3538 -11.0003
rtoes -4.45251
lfemur -15.3782 -0.419591 -22.095
ltibia 24.859
lfoot -16.4623 8.41403
ltoes -10.6503
